<svg width="205" height="200" viewBox="0 0 205 200" fill="none" xmlns="http://www.w3.org/2000/svg">
<path d="M169.432 199.429L173.676 150.918" stroke="white" stroke-width="4"/>
<line x1="197.824" y1="150.742" x2="202.069" y2="199.253" stroke="white" stroke-width="4"/>
<line x1="171.447" y1="150.944" x2="199.853" y2="150.944" stroke="white" stroke-width="4"/>
<line x1="2.22636" y1="198.932" x2="6.47053" y2="150.421" stroke="white" stroke-width="4"/>
<path d="M30.6191 150.917L34.8633 199.428" stroke="white" stroke-width="4"/>
<line x1="4.21875" y1="151.761" x2="32.6249" y2="151.761" stroke="white" stroke-width="4"/>
<line x1="31.4316" y1="170.833" x2="172.65" y2="170.833" stroke="white" stroke-width="4"/>
<line x1="1" y1="197.61" x2="203.901" y2="197.61" stroke="white" stroke-width="4"/>
<line x1="126.328" y1="52.9417" x2="136.614" y2="170.512" stroke="white" stroke-width="4"/>
<line x1="64.7205" y1="169.532" x2="74.9772" y2="52.2974" stroke="white" stroke-width="4"/>
<line x1="72.7607" y1="53.9583" x2="128.356" y2="53.9583" stroke="white" stroke-width="4"/>
<line x1="90.3066" y1="53.13" x2="90.3066" y2="21.0616" stroke="white" stroke-width="4"/>
<line x1="111.806" y1="53.13" x2="111.806" y2="21.0616" stroke="white" stroke-width="4"/>
<line x1="84.5566" y1="19.8704" x2="117.427" y2="19.8704" stroke="white" stroke-width="4"/>
<line x1="83.1424" y1="21.0664" x2="101.794" y2="2.41502" stroke="white" stroke-width="4"/>
<line x1="99.7209" y1="1.58579" x2="118.946" y2="20.8111" stroke="white" stroke-width="4"/>
<line x1="84.3481" y1="44.5521" x2="37.8584" y2="48.6194" stroke="white" stroke-width="4"/>
<line x1="84.0093" y1="28.2935" x2="38.3284" y2="24.2969" stroke="white" stroke-width="4"/>
<line x1="83.0156" y1="26.3331" x2="83.0156" y2="46.6232" stroke="white" stroke-width="4"/>
<line x1="37.5518" y1="22.2755" x2="37.146" y2="50.6816" stroke="white" stroke-width="4"/>
<line x1="117.423" y1="28.4015" x2="163.913" y2="24.3341" stroke="white" stroke-width="4"/>
<line x1="117.761" y1="44.662" x2="163.442" y2="48.6586" stroke="white" stroke-width="4"/>
<line x1="118.755" y1="46.6219" x2="118.755" y2="26.3318" stroke="white" stroke-width="4"/>
<line x1="164.219" y1="50.6798" x2="164.625" y2="22.2737" stroke="white" stroke-width="4"/>
</svg>
