<svg width="34" height="34" viewBox="0 0 34 34" fill="none" xmlns="http://www.w3.org/2000/svg">
<path d="M16.777 16.9369C21.1708 16.9369 24.7322 13.3753 24.7322 8.98172C24.7322 4.58836 21.1708 1.02649 16.777 1.02649C12.3836 1.02649 8.82178 4.58836 8.82178 8.98172C8.82515 13.3738 12.3849 16.9336 16.777 16.9369ZM16.777 2.3748C20.426 2.3748 23.3839 5.33269 23.3839 8.98172C23.3839 12.6308 20.426 15.5886 16.777 15.5886C13.1284 15.5886 10.1701 12.6308 10.1701 8.98172C10.1762 5.33543 13.1307 2.38071 16.777 2.3748Z" fill="white"/>
<path d="M16.7771 18.9258C13.3188 18.9258 10.1028 20.2673 7.71641 22.708C5.29604 25.1822 3.96777 28.5596 3.96777 32.2274C3.96883 32.5993 4.27019 32.9004 4.64203 32.9015H28.9123C29.2843 32.9004 29.5853 32.5993 29.5863 32.2274C29.5863 28.5666 28.2583 25.1822 25.8381 22.7147C23.4515 20.2741 20.2357 18.9258 16.7771 18.9258ZM5.3298 31.5531C5.47816 28.506 6.65785 25.7216 8.67367 23.6585C10.8041 21.4808 13.6828 20.2811 16.7705 20.2811C19.8582 20.2811 22.7369 21.4808 24.8671 23.6585C26.8897 25.7216 28.0629 28.506 28.2112 31.5531H5.3298Z" fill="white"/>
</svg>
