<svg width="34" height="34" viewBox="0 0 34 34" fill="none" xmlns="http://www.w3.org/2000/svg">
<path d="M20.5132 5.8898C19.7186 5.09532 18.8101 4.44108 17.8129 3.94529C17.5608 3.81998 17.255 3.92271 17.1297 4.17479C17.0043 4.42687 17.1071 4.73274 17.3592 4.85805C18.2574 5.30456 19.0761 5.89418 19.7923 6.61057C23.4141 10.2324 23.4141 16.1255 19.7923 19.7473C18.0379 21.5018 15.7052 22.4681 13.224 22.4681C10.7428 22.4681 8.41011 21.5018 6.65566 19.7473C4.90114 17.9929 3.93493 15.6602 3.93493 13.1789C3.93493 10.6977 4.90114 8.36503 6.65566 6.61057C7.71411 5.55212 8.96839 4.78573 10.3835 4.33264C11.7341 3.90027 13.1916 3.78227 14.598 3.99138C14.8768 4.03288 15.1359 3.84064 15.1772 3.5622C15.2185 3.28375 15.0264 3.0245 14.748 2.98313C13.1879 2.75118 11.5712 2.88206 10.0727 3.36185C8.52353 3.85777 7.09261 4.73194 5.93475 5.8898C3.98779 7.83677 2.91553 10.4254 2.91553 13.1789C2.91553 15.9325 3.98779 18.5211 5.93475 20.4681C7.88178 22.4151 10.4704 23.4874 13.224 23.4874C15.9774 23.4874 18.5661 22.4151 20.5131 20.4681C24.5324 16.4488 24.5324 9.90904 20.5132 5.8898Z" fill="white"/>
<path d="M33.187 29.306L24.2688 20.388C25.8532 17.9487 26.5894 15.0238 26.3459 12.1033C26.0875 9.00309 24.7323 6.08215 22.53 3.87852C20.0309 1.378 16.7171 0.00053125 13.199 0C13.1981 0 13.1978 0 13.1969 0C9.67967 0 6.36593 1.37647 3.86674 3.87567C-1.27789 9.02036 -1.27782 17.3913 3.8668 22.536C6.07036 24.7395 8.99164 26.0957 12.0926 26.3546C15.0142 26.5984 17.9393 25.8626 20.3791 24.2777L29.2972 33.1957C29.8334 33.7319 30.5377 34 31.242 34C31.9464 34 32.6507 33.7319 33.187 33.1957C34.2593 32.1233 34.2593 30.3784 33.187 29.306ZM32.4662 32.4749C31.7911 33.1499 30.6929 33.1499 30.0179 32.4749L20.8032 23.2601C20.7046 23.1615 20.574 23.1108 20.4427 23.1108C20.3413 23.1108 20.2394 23.141 20.1513 23.2025C17.8375 24.8162 15.0063 25.5748 12.1775 25.3388C9.31643 25.0999 6.621 23.8485 4.58771 21.8152C-0.159608 17.068 -0.159674 9.34369 4.58758 4.59644C6.8944 2.28962 9.95174 1.01934 13.1969 1.01934C13.1975 1.01934 13.1983 1.01934 13.1989 1.01934C16.4447 1.0198 19.5026 2.29115 21.8091 4.5991C23.8413 6.63246 25.0918 9.32762 25.3302 12.1881C25.5654 15.0104 24.8097 17.8363 23.2024 20.1473C22.8565 20.5751 21.9009 21.7198 21.432 22.1263C21.2194 22.3107 21.1964 22.6326 21.3808 22.8452C21.4817 22.9615 21.6236 23.021 21.7661 23.021C21.8845 23.021 22.0034 22.98 22.0998 22.8964C22.5316 22.522 23.2264 21.7143 23.6484 21.209L32.4662 30.0268C33.1411 30.7017 33.1411 31.8 32.4662 32.4749Z" fill="white"/>
</svg>
